<svg width="135" height="36" viewBox="0 0 135 36" fill="none" xmlns="http://www.w3.org/2000/svg">
<circle cx="18" cy="18" r="3" fill="#D13130"/>
<path d="M29.0594 11.3H31.4594V20.34H36.9474V22.5H29.0594V11.3ZM40.3403 22.5H38.1163V14.82H40.3403V22.5ZM40.5323 12.276C40.5323 12.692 40.4096 13.0067 40.1643 13.22C39.9189 13.4333 39.6043 13.54 39.2203 13.54C38.8469 13.54 38.5376 13.4333 38.2923 13.22C38.0469 13.0067 37.9243 12.692 37.9243 12.276C37.9243 11.8707 38.0469 11.5613 38.2923 11.348C38.5376 11.1347 38.8469 11.028 39.2203 11.028C39.5936 11.028 39.9029 11.1347 40.1483 11.348C40.4043 11.5613 40.5323 11.8707 40.5323 12.276ZM47.7605 14.82H50.1285L46.9605 22.5H44.6245L41.4565 14.82H43.8245L45.7925 20.148L47.7605 14.82ZM50.4183 18.66C50.4183 17.9667 50.5409 17.3533 50.7863 16.82C51.0316 16.276 51.3516 15.8493 51.7463 15.54C52.1516 15.2307 52.5729 14.996 53.0103 14.836C53.4583 14.676 53.9116 14.596 54.3703 14.596C55.1383 14.596 55.7996 14.74 56.3543 15.028C56.9196 15.316 57.3356 15.6893 57.6023 16.148C57.8689 16.596 58.0503 17.108 58.1463 17.684C58.2529 18.2493 58.2263 18.8147 58.0663 19.38H52.6583C52.7756 19.9133 53.0849 20.3133 53.5863 20.58C54.0876 20.836 54.6796 20.964 55.3623 20.964C56.2049 20.964 56.9783 20.8093 57.6823 20.5V22.244C56.9249 22.564 55.9863 22.724 54.8663 22.724C53.5863 22.724 52.5249 22.3667 51.6823 21.652C50.8396 20.9373 50.4183 19.94 50.4183 18.66ZM56.0663 17.94C56.1196 17.588 56.0183 17.2253 55.7623 16.852C55.5063 16.4787 55.0689 16.292 54.4503 16.292C53.9596 16.292 53.5383 16.4413 53.1863 16.74C52.8343 17.028 52.6529 17.428 52.6423 17.94H56.0663ZM70.0111 20.516C70.0111 20.8573 70.1925 21.028 70.5551 21.028C70.7045 21.028 70.8431 21.0067 70.9711 20.964V22.42C70.5658 22.5693 70.1551 22.644 69.7391 22.644C68.9285 22.644 68.3631 22.356 68.0431 21.78C67.2431 22.4093 66.3205 22.724 65.2751 22.724C64.5178 22.724 63.8778 22.516 63.3551 22.1C62.8431 21.6733 62.5871 21.0973 62.5871 20.372C62.5871 19.764 62.7685 19.2573 63.1311 18.852C63.4938 18.4467 63.9151 18.1747 64.3951 18.036C64.8751 17.8867 65.3978 17.812 65.9631 17.812C66.5925 17.812 67.2005 17.8813 67.7871 18.02V17.748C67.7871 17.3533 67.6325 17.0387 67.3231 16.804C67.0138 16.5693 66.5658 16.452 65.9791 16.452C65.1258 16.452 64.2191 16.644 63.2591 17.028V15.108C64.2831 14.7667 65.2751 14.596 66.2351 14.596C68.7525 14.596 70.0111 15.7533 70.0111 18.068V20.516ZM66.4751 19.14C66.0165 19.14 65.6325 19.2253 65.3231 19.396C65.0138 19.5667 64.8591 19.8333 64.8591 20.196C64.8591 20.4733 64.9711 20.7027 65.1951 20.884C65.4298 21.0547 65.7178 21.14 66.0591 21.14C66.7311 21.14 67.3071 20.932 67.7871 20.516V19.316C67.2965 19.1987 66.8591 19.14 66.4751 19.14ZM77.3501 14.82H79.5741V22.5H77.6061V21.524C76.9128 22.324 76.0595 22.724 75.0461 22.724C74.0435 22.724 73.2701 22.4307 72.7261 21.844C72.1928 21.2573 71.9261 20.5 71.9261 19.572V14.82H74.1501V19.284C74.1501 19.7853 74.2781 20.164 74.5341 20.42C74.7901 20.676 75.1528 20.804 75.6221 20.804C76.3048 20.804 76.8808 20.4787 77.3501 19.828V14.82ZM81.0276 18.772C81.0276 18.068 81.1503 17.4387 81.3956 16.884C81.6516 16.3293 81.9876 15.892 82.4036 15.572C82.8196 15.2413 83.2783 14.996 83.7796 14.836C84.281 14.6653 84.809 14.58 85.3636 14.58C86.249 14.58 87.0383 14.7667 87.7316 15.14V17.092C87.1343 16.708 86.4516 16.516 85.6836 16.516C85.0116 16.516 84.4463 16.692 83.9876 17.044C83.529 17.396 83.2996 17.9347 83.2996 18.66C83.2996 19.3533 83.529 19.8867 83.9876 20.26C84.4463 20.6227 85.001 20.804 85.6516 20.804C86.473 20.804 87.193 20.6173 87.8116 20.244V22.212C87.0116 22.5533 86.1476 22.724 85.2196 22.724C84.0676 22.724 83.081 22.388 82.2596 21.716C81.4383 21.0333 81.0276 20.052 81.0276 18.772ZM89.8794 12.58L92.0874 12.052V14.82H94.5194V16.692H92.0874V19.7C92.0874 20.468 92.498 20.852 93.3194 20.852C93.81 20.852 94.274 20.7667 94.7114 20.596V22.388C94.0714 22.612 93.3834 22.724 92.6474 22.724C91.8367 22.724 91.17 22.516 90.6474 22.1C90.1354 21.684 89.8794 21.028 89.8794 20.132V16.692H88.5834V14.82H89.8794V12.58ZM98.2309 22.5H96.0069V14.82H98.2309V22.5ZM98.4229 12.276C98.4229 12.692 98.3002 13.0067 98.0549 13.22C97.8095 13.4333 97.4949 13.54 97.1109 13.54C96.7375 13.54 96.4282 13.4333 96.1829 13.22C95.9375 13.0067 95.8149 12.692 95.8149 12.276C95.8149 11.8707 95.9375 11.5613 96.1829 11.348C96.4282 11.1347 96.7375 11.028 97.1109 11.028C97.4842 11.028 97.7935 11.1347 98.0389 11.348C98.2949 11.5613 98.4229 11.8707 98.4229 12.276ZM100.947 21.652C100.126 20.9373 99.7151 19.94 99.7151 18.66C99.7151 17.38 100.126 16.3827 100.947 15.668C101.768 14.9533 102.771 14.596 103.955 14.596C105.15 14.596 106.152 14.9533 106.963 15.668C107.784 16.3827 108.195 17.38 108.195 18.66C108.195 19.94 107.784 20.9373 106.963 21.652C106.152 22.3667 105.15 22.724 103.955 22.724C102.771 22.724 101.768 22.3667 100.947 21.652ZM105.411 20.164C105.763 19.7693 105.939 19.268 105.939 18.66C105.939 18.052 105.763 17.556 105.411 17.172C105.059 16.7773 104.574 16.58 103.955 16.58C103.336 16.58 102.851 16.7773 102.499 17.172C102.158 17.556 101.987 18.052 101.987 18.66C101.987 19.268 102.158 19.7693 102.499 20.164C102.851 20.548 103.336 20.74 103.955 20.74C104.574 20.74 105.059 20.548 105.411 20.164ZM111.615 15.796C112.308 14.996 113.162 14.596 114.175 14.596C115.156 14.596 115.919 14.8947 116.463 15.492C117.018 16.0787 117.295 16.8307 117.295 17.748V22.5H115.071V18.036C115.071 17.5347 114.932 17.156 114.655 16.9C114.388 16.644 114.031 16.516 113.583 16.516C112.89 16.516 112.319 16.8413 111.871 17.492V22.5H109.647V14.82H111.615V15.796Z" fill="#D13130"/>
<rect x="1" y="1" width="133" height="34" rx="17" stroke="#D13130" stroke-width="2"/>
</svg>
